<svg viewBox="0 0 200 200" xmlns="http://www.w3.org/2000/svg">
  <path fill="#9071BB" d="M42.3,-71.4C55.1,-65.8,66.2,-55.2,71.6,-42.4C77.1,-29.7,77,-14.9,77.4,0.2C77.8,15.3,78.7,30.6,73.4,43.6C68.1,56.7,56.6,67.4,43.3,72.9C30,78.5,15,78.9,0.9,77.4C-13.2,75.8,-26.4,72.3,-38.1,65.8C-49.8,59.3,-60,49.9,-68,38.5C-75.9,27,-81.7,13.5,-81.7,0C-81.7,-13.5,-76.1,-27.1,-68.1,-38.5C-60.1,-50,-49.9,-59.3,-38.2,-65.6C-26.4,-71.8,-13.2,-75,0.7,-76.3C14.7,-77.5,29.4,-77,42.3,-71.4Z" transform="translate(100 100)" />
</svg>