<svg viewBox="0 0 200 200" xmlns="http://www.w3.org/2000/svg">
  <path fill="#9071BB" d="M39.5,-66.8C51.9,-61.2,63.1,-52.1,71.5,-40.4C79.8,-28.6,85.1,-14.3,86.3,0.7C87.5,15.7,84.5,31.4,76,42.8C67.5,54.1,53.4,61.2,39.8,67.3C26.2,73.5,13.1,78.7,-1.8,81.8C-16.6,84.8,-33.3,85.7,-46.9,79.5C-60.6,73.4,-71.3,60.4,-77.5,46C-83.7,31.5,-85.4,15.8,-84.3,0.6C-83.1,-14.5,-79.2,-29,-71.4,-40.6C-63.6,-52.2,-51.9,-60.9,-39.3,-66.4C-26.8,-71.9,-13.4,-74.3,0.1,-74.4C13.5,-74.5,27.1,-72.4,39.5,-66.8Z" transform="translate(100 100)" />
</svg>