<svg viewBox="0 0 200 200" xmlns="http://www.w3.org/2000/svg">
  <path fill="#9071BB" d="M40.3,-71.7C51.8,-63.3,60.3,-51.5,66.5,-39C72.6,-26.5,76.4,-13.2,77.2,0.5C78,14.2,75.8,28.3,70.2,41.7C64.5,55.1,55.4,67.6,43.1,73.6C30.9,79.6,15.4,79.1,0.9,77.5C-13.5,75.9,-27.1,73.1,-38.4,66.5C-49.7,60,-58.7,49.6,-67.4,37.8C-76.1,26.1,-84.3,13,-87.1,-1.6C-89.9,-16.3,-87.2,-32.5,-78.1,-43.6C-69.1,-54.7,-53.8,-60.7,-39.7,-67.6C-25.7,-74.6,-12.8,-82.5,0.8,-83.8C14.4,-85.2,28.9,-80.1,40.3,-71.7Z" transform="translate(100 100)" />
</svg>

