<svg viewBox="0 0 200 200" xmlns="http://www.w3.org/2000/svg">
  <path fill="#9071BB" d="M37.9,-64.6C50.7,-58.2,63.7,-51.2,70.8,-40.4C78,-29.5,79.3,-14.8,79.2,-0.1C79,14.6,77.5,29.2,70.8,41C64.2,52.7,52.4,61.6,39.8,68.8C27.1,76,13.6,81.6,-0.6,82.7C-14.8,83.8,-29.6,80.4,-42.9,73.5C-56.1,66.6,-67.7,56.2,-73.9,43.4C-80.1,30.6,-80.8,15.3,-79.3,0.9C-77.8,-13.6,-74.1,-27.1,-67.3,-38.8C-60.4,-50.4,-50.4,-60.1,-38.6,-67.1C-26.9,-74,-13.4,-78.2,-0.4,-77.5C12.5,-76.7,25.1,-70.9,37.9,-64.6Z" transform="translate(100 100)" />
</svg>